<svg height="285.386251" viewBox="0 0 567.5 462.1" width="350.402304" xmlns="http://www.w3.org/2000/svg"><path d="m65.4 103.2-13.5 25.6h25.4l.2 205.9h-25.6l14.8 25.7h433.6l14.5-25.7h-25.6l.2-205.9h25.4l-14.3-25.6z" fill="#fff"/><path d="m489.2 334.7h25.6l41.7-72.3c11.9-20.9 14.3-38.4 1.3-60.3l-43.1-73.2h-25.4c-.1-.1-.1 205.8-.1 205.8zm11.1 25.7-44.5 77.2c-9.3 14.6-26.4 23.9-43.7 24.3h-257.4c-16.2 0-33.5-8.4-42.8-22.4l-45.2-79.2h433.6zm.2-257.2-46.7-80.2c-9.3-14.6-25.2-22.9-42-22.9h-257.9c-18.5 0-34.2 9-44.6 27l-44 76h435.2zm-423 231.5h-25.6l-41.7-72.3c-12-20.9-14.4-38.5-1.4-60.4l43.1-73.2h25.4c.2 0 .2 205.9.2 205.9z" fill="#ffca38" stroke="#ffca38" stroke-miterlimit="3.8637" stroke-width=".1572"/><g clip-rule="evenodd" fill="#1c3a8e" fill-rule="evenodd"><path d="m337.8 169.5c0-30.2-19.9-40.4-59.1-40.4h-39.5v207h37.7v-79.4h15.7c29.2 0 45.2-14 45.2-42.5zm-60.9-15.7h6.8c12.8 0 16.4 5.5 16.4 19.8v49.1c0 9.3-12.1 9.3-23.1 9.3v-78.2zm174.1 50.9v-44.8c0-27-26-34.9-49.5-34.9-23.1 0-49.1 7.9-49.1 34.9v145.4c0 27 26 34.9 49.1 34.9 23.5 0 49.5-7.9 49.5-34.9v-47.4h-37.7v44.8c0 10.5-3.9 12.8-11.4 12.8-7.8 0-11.7-2.3-11.7-12.8v-140.2c0-10.5 3.9-12.8 11.7-12.8 7.5 0 11.4 2.3 11.4 12.8v42.2zm-230.8 28.2h-52.6v24.7h14.9l.1 45.1c0 10.5-3.9 12.8-11.4 12.8-7.8 0-11.7-2.3-11.7-12.8v-140.2c0-10.5 3.9-12.8 11.7-12.8 7.5 0 11.4 2.3 11.4 12.8v42.2h37.7v-44.8c0-27-26-34.9-49.5-34.9-23.1 0-49.1 7.9-49.1 34.9v145.4c0 27 26 34.9 49.1 34.9 23.5 0 49.5-7.9 49.5-34.9z"/><path d="m530 443.7c0-10.6 8.6-18.4 18.8-18.4 10.1 0 18.7 7.8 18.7 18.4 0 10.7-8.6 18.5-18.7 18.5-10.2-.1-18.8-7.9-18.8-18.5zm18.8 15.4c8.4 0 15-6.5 15-15.4 0-8.7-6.6-15.3-15-15.3-8.5 0-15.1 6.6-15.1 15.3 0 8.8 6.6 15.4 15.1 15.4zm-3.9-4.8h-3.2v-21.2h8.1c5 0 7.5 1.9 7.5 6 0 3.8-2.4 5.5-5.5 5.8l6.1 9.4h-3.6l-5.6-9.2h-3.7v9.2zm3.8-11.9c2.7 0 5.2-.2 5.2-3.5 0-2.6-2.4-3.1-4.6-3.1h-4.4v6.6z"/></g></svg>